<?xml version="1.0" encoding="utf-8"?><svg xmlns="http://www.w3.org/2000/svg" xmlns:xlink="http://www.w3.org/1999/xlink" width="1535" height="279" preserveAspectRatio="xMidYMid" viewBox="0 0 1535 279" style="z-index:1;margin-right:-2px;display:block;background-repeat-y:initial;background-repeat-x:initial;animation-play-state:paused" ><g transform="translate(767.5,139.5) scale(1,1) translate(-767.5,-139.5)" style="transform:matrix(1, 0, 0, 1, 0, 0);animation-play-state:paused" ><linearGradient id="lg-0.47423680690972847" x1="0" x2="1" y1="0" y2="0" style="animation-play-state:paused" ><stop stop-color="#162fc2" offset="0" style="animation-play-state:paused" ></stop>

  
<stop stop-color="#00ffff" offset="1" style="animation-play-state:paused" ></stop></linearGradient>
<path d="M 0 0 L 0 250.169 Q 191.875 223.245 383.75 196.707 T 767.5 187.356 T 1151.25 163.511 T 1535 107.022 L 1535 0 Z" fill="url(#lg-0.47423680690972847)" opacity="0.4" style="opacity:0.4;animation-play-state:paused" ></path>
<path d="M 0 0 L 0 243.304 Q 191.875 247.725 383.75 224.477 T 767.5 191.047 T 1151.25 147.36 T 1535 104.503 L 1535 0 Z" fill="url(#lg-0.47423680690972847)" opacity="0.4" style="opacity:0.4;animation-play-state:paused" ></path>
<path d="M 0 0 L 0 247.813 Q 191.875 254.416 383.75 231.562 T 767.5 182.365 T 1151.25 151.566 T 1535 112.797 L 1535 0 Z" fill="url(#lg-0.47423680690972847)" opacity="0.4" style="opacity:0.4;animation-play-state:paused" ></path>
<path d="M 0 0 L 0 271.477 Q 191.875 232.791 383.75 211.619 T 767.5 192.176 T 1151.25 145.658 T 1535 125.246 L 1535 0 Z" fill="url(#lg-0.47423680690972847)" opacity="0.4" style="opacity:0.4;animation-play-state:paused" ></path>
<path d="M 0 0 L 0 257.946 Q 191.875 252.082 383.75 224.65 T 767.5 182.729 T 1151.25 145.42 T 1535 122.901 L 1535 0 Z" fill="url(#lg-0.47423680690972847)" opacity="0.4" style="opacity:0.4;animation-play-state:paused" ></path></g></svg>