<svg height="100%" width="100%" id="svg" viewBox="0 0 1440 500" xmlns="http://www.w3.org/2000/svg" class="transition duration-300 ease-in-out delay-150"><defs><linearGradient id="gradient"><stop offset="5%" stop-color="#7bdcb588"></stop><stop offset="95%" stop-color="#0693e388"></stop></linearGradient></defs><path d="M 0,500 C 0,500 0,166 0,166 C 155.33333333333331,161.33333333333331 310.66666666666663,156.66666666666666 485,149 C 659.3333333333334,141.33333333333334 852.6666666666667,130.66666666666669 1015,133 C 1177.3333333333333,135.33333333333331 1308.6666666666665,150.66666666666666 1440,166 C 1440,166 1440,500 1440,500 Z" stroke="none" stroke-width="0" fill="url(#gradient)" class="transition-all duration-300 ease-in-out delay-150" transform="rotate(-180 720 250)"></path><defs><linearGradient id="gradient"><stop offset="5%" stop-color="#7bdcb5ff"></stop><stop offset="95%" stop-color="#0693e3ff"></stop></linearGradient></defs><path d="M 0,500 C 0,500 0,333 0,333 C 191.86666666666667,337.26666666666665 383.73333333333335,341.53333333333336 551,327 C 718.2666666666667,312.46666666666664 860.9333333333334,279.1333333333333 1005,277 C 1149.0666666666666,274.8666666666667 1294.5333333333333,303.93333333333334 1440,333 C 1440,333 1440,500 1440,500 Z" stroke="none" stroke-width="0" fill="url(#gradient)" class="transition-all duration-300 ease-in-out delay-150" transform="rotate(-180 720 250)"></path></svg>