<svg height="100%" width="100%" id="svg" viewBox="0 0 1440 400" xmlns="http://www.w3.org/2000/svg" class="transition duration-300 ease-in-out delay-150"><defs><linearGradient id="gradient"><stop offset="5%" stop-color="#002bdc88"></stop><stop offset="95%" stop-color="#32ded488"></stop></linearGradient></defs><path d="M 0,400 C 0,400 0,133 0,133 C 113.02392344497608,139.61244019138758 226.04784688995215,146.22488038277513 322,141 C 417.95215311004785,135.77511961722487 496.83253588516754,118.71291866028707 601,124 C 705.1674641148325,129.28708133971293 834.6220095693781,156.92344497607655 914,158 C 993.3779904306219,159.07655502392345 1022.6794258373207,133.59330143540672 1102,125 C 1181.3205741626793,116.4066985645933 1310.6602870813397,124.70334928229664 1440,133 C 1440,133 1440,400 1440,400 Z" stroke="none" stroke-width="0" fill="url(#gradient)" class="transition-all duration-300 ease-in-out delay-150"></path><defs><linearGradient id="gradient"><stop offset="5%" stop-color="#002bdcff"></stop><stop offset="95%" stop-color="#32ded4ff"></stop></linearGradient></defs><path d="M 0,400 C 0,400 0,266 0,266 C 99.57894736842107,284.2105263157895 199.15789473684214,302.4210526315789 297,293 C 394.84210526315786,283.5789473684211 490.9473684210526,246.5263157894737 589,245 C 687.0526315789474,243.4736842105263 787.0526315789474,277.4736842105263 880,289 C 972.9473684210526,300.5263157894737 1058.842105263158,289.57894736842104 1151,282 C 1243.157894736842,274.42105263157896 1341.578947368421,270.2105263157895 1440,266 C 1440,266 1440,400 1440,400 Z" stroke="none" stroke-width="0" fill="url(#gradient)" class="transition-all duration-300 ease-in-out delay-150"></path></svg>