<svg height="100%" width="100%" id="svg" viewBox="0 0 1440 400" xmlns="http://www.w3.org/2000/svg" class="transition duration-300 ease-in-out delay-150"><defs><linearGradient id="gradient"><stop offset="5%" stop-color="#0693e388"></stop><stop offset="95%" stop-color="#9900ef88"></stop></linearGradient></defs><path d="M 0,400 C 0,400 0,133 0,133 C 87.75119617224883,129.66985645933016 175.50239234449765,126.3397129186603 271,127 C 366.49760765550235,127.6602870813397 469.7416267942583,132.31100478468898 579,123 C 688.2583732057417,113.68899521531101 803.5311004784689,90.41626794258373 889,92 C 974.4688995215311,93.58373205741627 1030.1339712918661,120.02392344497608 1117,131 C 1203.8660287081339,141.97607655502392 1321.933014354067,137.48803827751198 1440,133 C 1440,133 1440,400 1440,400 Z" stroke="none" stroke-width="0" fill="url(#gradient)" class="transition-all duration-300 ease-in-out delay-150" transform="rotate(-180 720 200)"></path><defs><linearGradient id="gradient"><stop offset="5%" stop-color="#0693e3ff"></stop><stop offset="95%" stop-color="#9900efff"></stop></linearGradient></defs><path d="M 0,400 C 0,400 0,266 0,266 C 89.11004784688996,256.0382775119617 178.2200956937799,246.07655502392345 281,261 C 383.7799043062201,275.92344497607655 500.22966507177034,315.73205741626793 605,308 C 709.7703349282297,300.26794258373207 802.8612440191388,244.99521531100478 902,241 C 1001.1387559808612,237.00478468899522 1106.3253588516745,284.2870813397129 1197,297 C 1287.6746411483255,309.7129186602871 1363.8373205741627,287.85645933014354 1440,266 C 1440,266 1440,400 1440,400 Z" stroke="none" stroke-width="0" fill="url(#gradient)" class="transition-all duration-300 ease-in-out delay-150" transform="rotate(-180 720 200)"></path></svg>