<svg height="100%" width="100%" id="svg" viewBox="0 0 1440 600" xmlns="http://www.w3.org/2000/svg" class="transition duration-300 ease-in-out delay-150"><defs><linearGradient id="gradient"><stop offset="5%" stop-color="#8ed1fc88"></stop><stop offset="95%" stop-color="#002bdc88"></stop></linearGradient></defs><path d="M 0,600 C 0,600 0,200 0,200 C 113.55023923444975,202.03827751196172 227.1004784688995,204.07655502392345 328,207 C 428.8995215311005,209.92344497607655 517.1483253588517,213.7320574162679 606,225 C 694.8516746411483,236.2679425837321 784.3062200956939,254.9952153110048 862,257 C 939.6937799043061,259.0047846889952 1005.6267942583731,244.2870813397129 1100,232 C 1194.3732057416269,219.7129186602871 1317.1866028708134,209.85645933014354 1440,200 C 1440,200 1440,600 1440,600 Z" stroke="none" stroke-width="0" fill="url(#gradient)" class="transition-all duration-300 ease-in-out delay-150"></path><defs><linearGradient id="gradient"><stop offset="5%" stop-color="#8ed1fcff"></stop><stop offset="95%" stop-color="#002bdcff"></stop></linearGradient></defs><path d="M 0,600 C 0,600 0,400 0,400 C 87.28229665071771,357.70334928229664 174.56459330143542,315.4066985645933 263,336 C 351.4354066985646,356.5933014354067 441.02392344497605,440.0765550239234 554,458 C 666.976076555024,475.9234449760766 803.3397129186603,428.287081339713 897,412 C 990.6602870813397,395.712918660287 1041.6172248803828,410.77511961722485 1125,414 C 1208.3827751196172,417.22488038277515 1324.1913875598086,408.6124401913876 1440,400 C 1440,400 1440,600 1440,600 Z" stroke="none" stroke-width="0" fill="url(#gradient)" class="transition-all duration-300 ease-in-out delay-150"></path></svg>